<?xml version="1.0" encoding="utf-8"?>
<!-- Generator: Adobe Illustrator 28.2.0, SVG Export Plug-In . SVG Version: 6.00 Build 0)  -->
<svg version="1.1" id="Layer_1" xmlns="http://www.w3.org/2000/svg" xmlns:xlink="http://www.w3.org/1999/xlink" x="0px" y="0px"
	 viewBox="0 0 56.3 50" style="enable-background:new 0 0 56.3 50;" xml:space="preserve">
<style type="text/css">
	.st0{fill:#9B9795;}
</style>
<g>
	<path class="st0" d="M36,38.1c-2.5,0.8-5.1,1.3-7.9,1.3c-10.2,0-19-6-23.1-14.6c1.8-3.8,4.6-7.1,8-9.6l-3.3-3.3
		C5.6,15.2,2.3,19.6,0,24.8C4.9,36.3,15.2,44,28.1,44c4.1,0,8-0.8,11.5-2.2L36,38.1z"/>
	<path class="st0" d="M28.1,14.1c-1.7,0-3.2,0.4-4.7,1.1l5.6,5.6c0.5-1.2,1.8-2,3.1-2c1.8,0,3.3,1.5,3.3,3.3c0,1.4-0.8,2.6-2,3.1
		l4.2,4.2c0.7-1.4,1.1-3,1.1-4.7C38.8,18.9,34,14.1,28.1,14.1z"/>
	<path class="st0" d="M19.9,11.6c2.6-0.9,5.4-1.4,8.2-1.4c10.2,0,19,6,23.1,14.6c-1.9,3.9-4.8,7.3-8.3,9.8l3.3,3.3
		c4.3-3.3,7.8-7.8,10.1-13.1c-5-11.5-15.4-19.2-28.2-19.2c-4.3,0-8.2,0.9-11.8,2.4L19.9,11.6z"/>
	<path class="st0" d="M28.1,35.5c1.5,0,3-0.3,4.3-0.9L18.3,20.5c-0.6,1.3-0.9,2.8-0.9,4.3C17.4,30.6,22.2,35.5,28.1,35.5z"/>
</g>
<path class="st0" d="M50.9,50c-0.6,0-1.2-0.2-1.6-0.7L3.8,3.9C2.9,3,2.9,1.6,3.8,0.7C4.2,0.2,4.8,0,5.4,0S6.6,0.2,7,0.7l45.5,45.4
	c0.9,0.9,0.9,2.3,0,3.2C52.1,49.8,51.5,50,50.9,50z"/>
</svg>
