<?xml version="1.0" encoding="utf-8"?>
<!-- Generator: Adobe Illustrator 28.2.0, SVG Export Plug-In . SVG Version: 6.00 Build 0)  -->
<svg version="1.1" id="Layer_1" xmlns="http://www.w3.org/2000/svg" xmlns:xlink="http://www.w3.org/1999/xlink" x="0px" y="0px"
	 viewBox="0 0 56.3 50" style="enable-background:new 0 0 56.3 50;" xml:space="preserve">
<style type="text/css">
	.st0{fill:#9B9795;}
</style>
<path class="st0" d="M28.1,44C15.2,44,4.9,36.3,0,24.8C5,13.2,15.3,5.6,28.1,5.6s23.2,7.7,28.2,19.2C51.4,36.3,41,44,28.1,44
	L28.1,44L28.1,44z M28.1,39.4c10.2,0,19-6,23.1-14.6c-4.1-8.6-12.9-14.6-23.1-14.6c-10.2,0-19,6-23.1,14.6
	C9.1,33.4,17.9,39.4,28.1,39.4L28.1,39.4L28.1,39.4z M17.4,24.8c0-5.9,4.8-10.7,10.7-10.7c5.9,0,10.7,4.8,10.7,10.7
	c0,5.9-4.8,10.7-10.7,10.7C22.2,35.5,17.4,30.6,17.4,24.8L17.4,24.8L17.4,24.8z M28.8,22.1c0,1.9,1.5,3.4,3.4,3.4
	c1.8,0,3.3-1.5,3.3-3.4c0-1.8-1.5-3.3-3.3-3.3S28.8,20.2,28.8,22.1L28.8,22.1L28.8,22.1z"/>
</svg>
