<?xml version="1.0" encoding="utf-8"?>
<!-- Generator: Adobe Illustrator 16.0.0, SVG Export Plug-In . SVG Version: 6.00 Build 0)  -->
<!DOCTYPE svg PUBLIC "-//W3C//DTD SVG 1.1//EN" "http://www.w3.org/Graphics/SVG/1.1/DTD/svg11.dtd">
<svg version="1.1" id="Layer_1" xmlns="http://www.w3.org/2000/svg" xmlns:xlink="http://www.w3.org/1999/xlink" x="0px" y="0px"
	 width="56.307px" height="50px" viewBox="0 0 56.307 50" enable-background="new 0 0 56.307 50" xml:space="preserve">
<path fill="#9CB07E" d="M56.246,15.599C55.651,7.386,50.536,0,40.855,0c-5.219,0-9.834,3.195-12.662,7.132
	C25.364,3.194,20.749,0,15.53,0C11.073,0,6.762,1.954,3.821,5.3c-5.664,6.445-4.419,17.063-0.244,23.944
	c3.796,6.256,9.624,11.199,15.587,15.314c2.881,1.986,5.886,3.887,9.028,5.441c10.244-4.896,21.62-13.057,26.254-23.721
	C55.903,22.923,56.505,19.183,56.246,15.599z"/>
</svg>
