<?xml version="1.0" encoding="UTF-8"?>
<svg id="Flat" xmlns="http://www.w3.org/2000/svg" version="1.1" viewBox="0 0 800 800">
  <defs>
    <style>
      .cls-1 {
        fill: #9cb07e;
        stroke-width: 0px;
      }
    </style>
  </defs>
  <path class="cls-1" d="M400,262.5c-75.9,0-137.5,61.6-137.5,137.5s61.6,137.5,137.5,137.5,137.5-61.6,137.5-137.5c0-75.9-61.6-137.4-137.5-137.5ZM400,512.5c-62.1,0-112.5-50.4-112.5-112.5s50.4-112.5,112.5-112.5,112.5,50.4,112.5,112.5c0,62.1-50.4,112.4-112.5,112.5ZM537.5,100h-275c-89.7.1-162.4,72.8-162.5,162.5v275c.1,89.7,72.8,162.4,162.5,162.5h275c89.7-.1,162.4-72.8,162.5-162.5v-275c-.1-89.7-72.8-162.4-162.5-162.5ZM675,537.5c0,75.9-61.6,137.4-137.5,137.5h-275c-75.9,0-137.4-61.6-137.5-137.5v-275c0-75.9,61.6-137.4,137.5-137.5h275c75.9,0,137.4,61.6,137.5,137.5v275ZM587.5,237.5c0,13.8-11.2,25-25,25s-25-11.2-25-25,11.2-25,25-25c13.8,0,25,11.2,25,25Z"/>
</svg>