<?xml version="1.0" encoding="utf-8"?>
<!-- Generator: Adobe Illustrator 16.0.0, SVG Export Plug-In . SVG Version: 6.00 Build 0)  -->
<!DOCTYPE svg PUBLIC "-//W3C//DTD SVG 1.1//EN" "http://www.w3.org/Graphics/SVG/1.1/DTD/svg11.dtd">
<svg version="1.1" id="Layer_1" xmlns="http://www.w3.org/2000/svg" xmlns:xlink="http://www.w3.org/1999/xlink" x="0px" y="0px"
	 width="56.307px" height="50px" viewBox="0 0 56.307 50" enable-background="new 0 0 56.307 50" xml:space="preserve">
<path fill="#9B9795" d="M56.246,15.599C55.651,7.386,50.535,0,40.855,0c-5.219,0-9.834,3.195-12.662,7.132
	C25.364,3.194,20.748,0,15.53,0C11.073,0,6.762,1.952,3.821,5.3c-5.665,6.444-4.419,17.063-0.244,23.944
	C7.373,35.5,13.2,40.443,19.164,44.559c2.881,1.987,5.886,3.887,9.029,5.441c10.245-4.896,21.62-13.057,26.254-23.721
	C55.905,22.924,56.506,19.183,56.246,15.599z M50.778,24.685c-4.53,10.426-16.199,17.578-22.542,20.83
	c-2.068-1.126-4.271-2.504-6.8-4.249C14.529,36.499,9.94,32.021,6.996,27.169C3.569,21.521,2.568,12.784,6.825,7.94
	C8.993,5.473,12.248,4,15.53,4c4.045,0,7.516,2.824,9.414,5.466l3.249,4.522l3.249-4.522C33.339,6.823,36.809,4,40.855,4
	c7.771,0,10.985,6.142,11.401,11.889C52.473,18.87,51.948,21.994,50.778,24.685z"/>
</svg>
