<?xml version="1.0" encoding="utf-8"?>
<!-- Generator: Adobe Illustrator 16.0.0, SVG Export Plug-In . SVG Version: 6.00 Build 0)  -->
<!DOCTYPE svg PUBLIC "-//W3C//DTD SVG 1.1//EN" "http://www.w3.org/Graphics/SVG/1.1/DTD/svg11.dtd">
<svg version="1.1" id="Layer_1" xmlns="http://www.w3.org/2000/svg" xmlns:xlink="http://www.w3.org/1999/xlink" x="0px" y="0px"
	 width="56.307px" height="50px" viewBox="0 0 56.307 50" enable-background="new 0 0 56.307 50" xml:space="preserve">
<path fill="#9B9795" d="M56.246,15.599C55.651,7.386,50.536,0,40.855,0c-5.219,0-9.834,3.195-12.662,7.132
	C25.364,3.194,20.749,0,15.53,0C11.073,0,6.762,1.954,3.821,5.3c-5.664,6.445-4.419,17.063-0.244,23.944
	c3.796,6.256,9.624,11.199,15.587,15.314c2.881,1.986,5.886,3.887,9.028,5.441c10.244-4.896,21.62-13.057,26.254-23.721
	C55.903,22.923,56.505,19.183,56.246,15.599z M52.153,25.284c-4.89,11.251-17.624,18.767-23.937,21.922
	c-2.314-1.217-4.771-2.732-7.633-4.706c-7.087-4.891-11.812-9.516-14.869-14.553C2.058,21.921,0.81,12.514,5.699,6.951
	C8.184,4.123,11.768,2.5,15.53,2.5c3.918,0,7.893,2.277,10.633,6.09l2.03,2.827l2.03-2.827c2.739-3.813,6.714-6.09,10.632-6.09
	c8.8,0,12.433,6.859,12.897,13.279C53.985,18.997,53.417,22.373,52.153,25.284z"/>
</svg>
