<?xml version="1.0" encoding="utf-8"?>
<!-- Generator: Adobe Illustrator 16.0.0, SVG Export Plug-In . SVG Version: 6.00 Build 0)  -->
<!DOCTYPE svg PUBLIC "-//W3C//DTD SVG 1.1//EN" "http://www.w3.org/Graphics/SVG/1.1/DTD/svg11.dtd">
<svg version="1.1" id="Layer_1" xmlns="http://www.w3.org/2000/svg" xmlns:xlink="http://www.w3.org/1999/xlink" x="0px" y="0px"
	 width="50.087px" height="50px" viewBox="0 0 50.087 50" enable-background="new 0 0 50.087 50" xml:space="preserve">
<g>
	<g>
		<g>
			<path fill="#9B9795" d="M50.01,46.906c-0.126-0.445-0.571-0.911-6.781-7.121l-6.584-6.625c2.736-3.486,4.368-7.878,4.368-12.653
				C41.013,9.182,31.832,0,20.507,0C9.18,0,0,9.182,0,20.506c0,11.325,9.18,20.506,20.507,20.506c4.77,0,9.159-1.629,12.643-4.359
				c0.232,0.214,1.978,1.833,6.625,6.48c4.578,4.579,6.676,6.612,6.93,6.718C46.916,49.936,47.318,50,47.595,50
				C49.185,50,50.413,48.432,50.01,46.906z M20.507,36.539c-8.809,0-15.95-7.14-15.95-15.948s7.141-15.949,15.95-15.949
				s15.949,7.141,15.949,15.949S29.315,36.539,20.507,36.539z"/>
		</g>
	</g>
</g>
</svg>
