<?xml version="1.0" encoding="utf-8"?>
<!-- Generator: Adobe Illustrator 16.0.0, SVG Export Plug-In . SVG Version: 6.00 Build 0)  -->
<!DOCTYPE svg PUBLIC "-//W3C//DTD SVG 1.1//EN" "http://www.w3.org/Graphics/SVG/1.1/DTD/svg11.dtd">
<svg version="1.1" id="Layer_1" xmlns="http://www.w3.org/2000/svg" xmlns:xlink="http://www.w3.org/1999/xlink" x="0px" y="0px"
	 width="61.557px" height="50px" viewBox="-0.306 0 61.557 50" enable-background="new -0.306 0 61.557 50" xml:space="preserve">
<g>
	<g>
		<path fill="#9B9795" d="M22.64,37.615c-2.854-0.77-5.049-3.399-5.922-7.243c-0.35-1.575-3.629-12.671-5.588-19.301
			c-0.869-2.939-1.506-5.096-1.679-5.709c-0.375-0.754-1.199-1.296-1.98-1.296H1.726c-1.121,0-2.033-0.912-2.033-2.033
			C-0.306,0.912,0.605,0,1.726,0h5.745c1.84,0,4.619,0,5.748,2.616c0.036,0.071,0.088,0.187,0.112,0.333
			c0.059,0.212,0.217,0.776,0.449,1.602c1.252,4.458,4.965,17.674,6.37,22.902h27.052c1.163,0,1.171-0.013,1.572-0.71
			c0.062-0.108,0.116-0.197,0.172-0.287c0.046-0.075,0.093-0.151,0.14-0.233c0.429-0.682,2.784-6.001,4.677-10.275
			c1.31-2.958,2.547-5.753,3.061-6.826c0.264-0.708,0.323-1.153,0.33-1.391c-0.04-0.002-0.086-0.003-0.139-0.003
			c-0.785,0.015-4.44,0.022-10.852,0.022c-8.729,0-20.237-0.014-25.104-0.02l-2.301-0.002c-1.121,0-2.033-0.912-2.033-2.033
			c0-1.121,0.912-2.033,2.033-2.033l0.693,0.001c3.171,0.004,16.56,0.021,26.485,0.021c6.527,0,10.241-0.008,11.038-0.022
			c1.983,0,3.015,0.889,3.534,1.634c0.945,1.241,0.991,3.068,0.116,5.404l-0.012,0.03l-0.014,0.03
			c-0.486,1.029-1.578,3.49-2.842,6.341c-2.714,6.119-4.672,10.51-5.161,11.284c-0.065,0.098-0.11,0.18-0.152,0.255
			c-0.031,0.056-0.062,0.109-0.091,0.159c-0.855,1.435-1.889,2.723-5.1,2.723H21.389c0.571,1.186,1.51,2.264,3.037,2.264h23.361
			c1.121,0,2.033,0.911,2.033,2.033c0,1.121-0.912,2.032-2.033,2.032H25.83C25.83,37.849,22.912,37.727,22.64,37.615z"/>
		<path fill="#9B9795" d="M23.765,38.308c3.229,0,5.846,2.617,5.846,5.847c0,3.228-2.618,5.846-5.846,5.846
			c-3.228,0-5.847-2.618-5.847-5.846C17.918,40.925,20.537,38.308,23.765,38.308z M23.765,47.61c1.907,0,3.432-1.551,3.432-3.431
			c0-1.882-1.551-3.433-3.432-3.433c-1.907,0-3.432,1.551-3.432,3.433C20.334,46.06,21.885,47.61,23.765,47.61z"/>
		<path fill="#9B9795" d="M47.532,38.308c3.229,0,5.847,2.617,5.847,5.847c0,3.228-2.618,5.846-5.847,5.846
			c-3.228,0-5.847-2.618-5.847-5.846C41.686,40.925,44.33,38.308,47.532,38.308z M47.532,47.61c1.907,0,3.432-1.551,3.432-3.431
			c0-1.882-1.55-3.433-3.432-3.433c-1.881,0-3.432,1.551-3.432,3.433C44.101,46.06,45.652,47.61,47.532,47.61z"/>
	</g>
</g>
</svg>
