<?xml version="1.0" encoding="utf-8"?>
<!-- Generator: Adobe Illustrator 16.0.0, SVG Export Plug-In . SVG Version: 6.00 Build 0)  -->
<!DOCTYPE svg PUBLIC "-//W3C//DTD SVG 1.1//EN" "http://www.w3.org/Graphics/SVG/1.1/DTD/svg11.dtd">
<svg version="1.1" id="Layer_1" xmlns="http://www.w3.org/2000/svg" xmlns:xlink="http://www.w3.org/1999/xlink" x="0px" y="0px"
	 width="60.944px" height="50px" viewBox="0 0 60.944 50" enable-background="new 0 0 60.944 50" xml:space="preserve">
<g>
	<g>
		<path fill="#9B9795" d="M60.357,9.789c-1.343,2.841-7.283,16.555-8.084,17.821c-0.104,0.154-0.181,0.31-0.258,0.438
			c-0.801,1.344-1.628,2.376-4.494,2.376H20.067c0.568,1.757,1.782,3.899,4.261,3.899h23.734c0.697,0,1.266,0.568,1.266,1.266
			c0,0.698-0.568,1.266-1.266,1.266H24.329c-3.512,0-6.095-2.764-7.051-6.973c-0.517-2.325-6.947-23.838-7.412-25.517
			C9.375,3.307,8.239,2.532,7.102,2.532H1.265C0.568,2.532,0,1.963,0,1.266S0.568,0,1.265,0h5.837c2.169,0,4.236,0.129,5.114,2.195
			c0.026,0.052,0.052,0.104,0.052,0.155c0.258,0.93,5.578,19.809,7.102,25.542h28.099c1.653,0,1.808-0.283,2.299-1.136
			c0.104-0.181,0.206-0.336,0.31-0.517c0.749-1.188,6.638-14.825,7.903-17.459c0.517-1.369,0.438-2.118,0.284-2.324
			c-0.104-0.129-0.388-0.207-0.827-0.207c-2.737,0.052-37.655,0-38.869,0c-0.697,0-1.266-0.568-1.266-1.265s0.568-1.266,1.266-1.266
			l0,0c0.31,0,36.08,0.051,38.843,0c1.679,0,2.505,0.723,2.918,1.317C61.157,6.122,61.131,7.723,60.357,9.789z M23.657,38.121
			c3.28,0,5.94,2.66,5.94,5.94c0,3.279-2.66,5.939-5.94,5.939c-3.28,0-5.94-2.66-5.94-5.939
			C17.717,40.781,20.377,38.121,23.657,38.121z M23.657,47.574c1.938,0,3.487-1.576,3.487-3.487c0-1.91-1.576-3.486-3.487-3.486
			c-1.937,0-3.487,1.576-3.487,3.486C20.17,45.998,21.746,47.574,23.657,47.574z"/>
		<path fill="#9B9795" d="M47.804,38.121c3.28,0,5.94,2.66,5.94,5.94c0,3.279-2.66,5.939-5.94,5.939
			c-3.279,0-5.939-2.66-5.939-5.939C41.865,40.781,44.551,38.121,47.804,38.121z M47.804,47.574c1.938,0,3.487-1.576,3.487-3.487
			c0-1.91-1.575-3.486-3.487-3.486c-1.91,0-3.486,1.576-3.486,3.486C44.318,45.998,45.894,47.574,47.804,47.574z"/>
	</g>
</g>
</svg>
